<svg width="15" height="16" viewBox="0 0 15 16" fill="none" xmlns="http://www.w3.org/2000/svg">
<path fill-rule="evenodd" clip-rule="evenodd" d="M2.25 1.8125C2.00136 1.8125 1.7629 1.91127 1.58709 2.08709C1.41127 2.2629 1.3125 2.50136 1.3125 2.75V13.392L3.35225 11.3523C3.45774 11.2468 3.60082 11.1875 3.75 11.1875H12.75C12.9986 11.1875 13.2371 11.0887 13.4129 10.9129C13.5887 10.7371 13.6875 10.4986 13.6875 10.25V2.75C13.6875 2.50136 13.5887 2.2629 13.4129 2.08709C13.2371 1.91127 12.9986 1.8125 12.75 1.8125H2.25ZM0.791592 1.29159C1.17839 0.904798 1.70299 0.6875 2.25 0.6875H12.75C13.297 0.6875 13.8216 0.904798 14.2084 1.29159C14.5952 1.67839 14.8125 2.20299 14.8125 2.75V10.25C14.8125 10.797 14.5952 11.3216 14.2084 11.7084C13.8216 12.0952 13.297 12.3125 12.75 12.3125H3.983L1.14775 15.1477C0.986874 15.3086 0.744932 15.3567 0.534741 15.2697C0.324549 15.1826 0.1875 14.9775 0.1875 14.75V2.75C0.1875 2.20299 0.404798 1.67839 0.791592 1.29159Z" fill="#737877"/>
</svg>
